<svg version="1.1" id="Layer_1" xmlns="http://www.w3.org/2000/svg" xmlns:xlink="http://www.w3.org/1999/xlink" x="0px" y="0px"
	 width="100%" viewBox="0 0 3464 866" enable-background="new 0 0 3464 866" xml:space="preserve">
<path fill="#000000" opacity="1.000000" stroke="none" 
	d="
M2503.000000,867.000000 
	C1668.666626,867.000000 834.833313,867.000000 1.000000,867.000000 
	C1.000000,578.333313 1.000000,289.666656 1.000000,1.000000 
	C1155.666626,1.000000 2310.333252,1.000000 3465.000000,1.000000 
	C3465.000000,289.666656 3465.000000,578.333313 3465.000000,867.000000 
	C3144.500000,867.000000 2824.000000,867.000000 2503.000000,867.000000 
M1973.997681,424.753021 
	C1973.665771,423.504700 1973.250244,422.271973 1973.014771,421.005737 
	C1970.681152,408.459991 1968.383789,395.907501 1966.063477,383.359253 
	C1963.572754,369.889313 1958.999268,357.102631 1953.276367,344.704559 
	C1949.528442,336.584900 1946.422607,328.052307 1941.733765,320.509949 
	C1934.074097,308.188995 1925.639282,296.487457 1915.305054,285.929962 
	C1905.874878,276.296082 1895.264526,268.528137 1883.824219,262.335968 
	C1872.534302,256.225098 1859.908569,252.402405 1847.593384,248.429474 
	C1839.545044,245.833054 1831.078125,243.935760 1822.669312,243.195389 
	C1810.317749,242.107834 1797.843872,241.939819 1785.434937,242.145721 
	C1777.819336,242.272095 1770.141113,243.386246 1762.645752,244.849365 
	C1752.437744,246.841965 1742.172852,248.963989 1732.307861,252.181656 
	C1721.213501,255.800232 1709.789795,259.448456 1699.874268,265.369568 
	C1688.354370,272.248718 1676.119751,278.493225 1666.720459,288.641663 
	C1661.036987,294.778137 1654.751343,300.353668 1648.991943,306.423737 
	C1643.305908,312.416412 1637.941772,318.714355 1632.562378,324.737244 
	C1629.238647,319.836792 1625.894043,315.303741 1622.967896,310.514954 
	C1615.100098,297.638275 1605.199097,286.438599 1593.440308,277.204987 
	C1581.575928,267.888489 1569.159058,258.985809 1554.550659,254.326096 
	C1543.283691,250.732178 1531.796265,247.734497 1520.261230,245.112289 
	C1513.786133,243.640289 1507.032349,243.114975 1500.373657,242.794662 
	C1490.126465,242.301697 1479.804565,241.656891 1469.605103,242.371155 
	C1459.844727,243.054688 1450.060669,244.817780 1440.538452,247.138138 
	C1427.321289,250.358932 1414.020142,253.713226 1401.355469,258.574951 
	C1391.059326,262.527466 1381.483276,268.503204 1371.908081,274.126923 
	C1366.766724,277.146576 1362.283569,281.293793 1357.534668,284.972626 
	C1354.518188,287.309479 1351.559082,289.720520 1348.119019,292.460876 
	C1347.706299,284.977142 1347.667236,278.526123 1346.925903,272.156860 
	C1345.779907,262.312042 1342.697998,257.800415 1331.317017,257.905945 
	C1301.321411,258.184052 1271.321533,257.999207 1241.323364,258.000488 
	C1232.151611,258.000854 1227.000854,263.060852 1227.000854,272.079193 
	C1226.999634,436.402344 1226.999634,600.725464 1227.001343,765.048645 
	C1227.001465,773.572510 1232.405640,778.984131 1241.050903,778.990417 
	C1274.048828,779.014282 1307.046875,779.012878 1340.044800,778.990356 
	C1347.612793,778.985168 1351.999390,774.432617 1351.999512,766.738220 
	C1352.000366,714.074829 1351.874878,661.411011 1352.041260,608.748108 
	C1352.164795,569.664001 1352.767700,530.581543 1352.938721,491.497375 
	C1352.990356,479.704071 1354.519043,468.244904 1356.742676,456.640381 
	C1360.668457,436.152618 1365.280640,416.082397 1379.176758,399.827087 
	C1384.680908,393.388458 1390.400513,387.033539 1397.931519,382.305634 
	C1414.493896,371.907593 1432.759766,368.794739 1451.661865,368.144470 
	C1458.462036,367.910553 1465.347046,369.126129 1472.144897,370.040558 
	C1487.311768,372.080780 1501.133179,376.878021 1511.593140,389.001343 
	C1519.040039,397.632721 1525.260742,406.731750 1529.133179,417.659637 
	C1537.480713,441.215363 1539.634644,465.748260 1539.781250,490.253754 
	C1540.328369,581.744812 1540.000000,673.241150 1540.000000,764.735474 
	C1540.000000,773.960083 1545.104370,778.992859 1554.531250,778.995911 
	C1586.862549,779.006470 1619.195312,778.842896 1651.524292,779.117676 
	C1658.994751,779.181152 1665.216309,772.770996 1665.191772,765.617493 
	C1664.895752,679.123901 1664.931152,592.628784 1665.088257,506.134399 
	C1665.107666,495.475525 1666.316528,484.817841 1667.001709,474.161377 
	C1667.981934,458.915039 1670.812866,444.103546 1675.660645,429.526978 
	C1683.281006,406.613068 1696.787354,388.974487 1718.485596,377.928223 
	C1732.998657,370.539825 1748.810547,368.959167 1764.653442,368.165680 
	C1771.267822,367.834473 1778.001343,369.129089 1784.632324,370.037506 
	C1799.985962,372.140839 1813.506104,377.365112 1824.387451,389.494019 
	C1833.070923,399.173065 1839.591797,409.722931 1842.856323,422.011108 
	C1845.954102,433.671814 1848.155640,445.627808 1849.885498,457.579224 
	C1851.775269,470.635193 1853.772217,483.830780 1853.822144,496.972717 
	C1854.161621,586.465881 1854.066895,675.961121 1853.893555,765.455261 
	C1853.876709,774.133301 1858.931641,779.039185 1867.291138,779.024048 
	C1899.789062,778.965149 1932.288940,778.820496 1964.783813,779.141907 
	C1971.814331,779.211426 1979.161377,772.193848 1979.143433,764.820068 
	C1978.923096,674.326233 1979.053711,583.831604 1978.906860,493.337433 
	C1978.893921,485.371033 1978.856445,477.476166 1977.431885,469.354492 
	C1974.919922,455.033966 1975.003174,440.258240 1973.997681,424.753021 
M2279.332520,791.999939 
	C2286.337891,790.332642 2293.403564,788.883301 2300.336426,786.955444 
	C2317.948242,782.057861 2335.204346,776.610352 2351.278076,767.237244 
	C2366.752441,758.213440 2380.768555,747.631531 2393.919434,735.659180 
	C2395.421875,734.291382 2397.500244,733.556396 2399.843506,732.225891 
	C2400.614014,744.076660 2401.323486,754.735779 2401.995117,765.397278 
	C2402.559570,774.348572 2407.390381,778.989197 2416.324707,778.993896 
	C2446.489502,779.009888 2476.654297,779.001221 2506.819092,778.999329 
	C2516.679688,778.998657 2521.999023,773.622864 2521.999268,763.660156 
	C2522.000488,708.663574 2522.000000,653.667053 2522.000000,598.670471 
	C2522.000000,490.010559 2521.960938,381.350647 2522.070557,272.690826 
	C2522.079834,263.550293 2515.636475,257.735596 2507.275146,257.843872 
	C2476.782227,258.238861 2446.274414,258.343292 2415.786865,257.781036 
	C2407.164795,257.622009 2402.137451,264.941315 2401.965332,271.521118 
	C2401.788330,278.276581 2401.472900,285.035583 2400.950439,291.772278 
	C2400.588379,296.442291 2399.773193,301.077179 2399.163574,305.704590 
	C2394.404785,301.618225 2389.657959,297.953644 2385.388184,293.799042 
	C2372.098877,280.868622 2356.111328,271.882172 2339.834961,263.696228 
	C2329.044434,258.269196 2317.227783,254.702484 2305.609375,251.158676 
	C2296.593750,248.408798 2287.219727,246.732681 2277.918701,245.055298 
	C2271.672852,243.928818 2265.291016,243.331940 2258.944824,243.032562 
	C2247.371094,242.486633 2235.713135,241.439575 2224.212402,242.277039 
	C2212.864502,243.103378 2201.697266,246.194366 2190.397705,247.951431 
	C2172.001709,250.812012 2154.254883,256.138489 2137.696289,264.329803 
	C2123.892822,271.158264 2111.100342,280.032623 2097.869141,288.016113 
	C2085.235596,295.638916 2074.602539,305.786377 2064.540527,316.299408 
	C2055.332520,325.920166 2047.315063,336.729218 2039.218018,347.353821 
	C2021.709473,370.327911 2009.942505,396.306030 2000.949585,423.545563 
	C1995.429688,440.265778 1991.742432,457.474426 1989.976562,475.054932 
	C1988.756226,487.202271 1986.721436,499.302948 1986.199097,511.473755 
	C1985.801392,520.737976 1985.685547,530.007812 1987.692749,539.438965 
	C1990.561768,552.918884 1991.108521,566.877197 1993.044189,580.575134 
	C1996.607666,605.792908 2005.837158,629.279053 2016.725952,652.008789 
	C2025.799683,670.949585 2036.558350,689.021057 2051.009521,704.606140 
	C2058.957764,713.178162 2066.090088,722.556091 2074.462891,730.670227 
	C2081.815918,737.796204 2090.010742,744.222534 2098.510742,749.954346 
	C2109.679932,757.486023 2121.228271,764.569458 2133.127441,770.876282 
	C2149.793457,779.709595 2168.195557,783.945435 2186.240967,788.958557 
	C2203.702881,793.809631 2221.770508,794.381714 2239.677979,794.753235 
	C2252.569092,795.020569 2265.508057,793.000000 2279.332520,791.999939 
M542.000000,406.500000 
	C542.000000,377.837189 542.000000,349.174377 542.000000,320.511566 
	C542.000000,304.180267 542.045471,287.848816 541.982178,271.517761 
	C541.946716,262.378510 536.181335,258.045685 531.163879,258.035126 
	C498.668060,257.966736 466.171997,257.968781 433.676178,258.034607 
	C428.894165,258.044281 423.670227,262.365234 423.073914,267.054993 
	C422.127045,274.501678 421.692139,282.012573 420.990967,289.491669 
	C420.514313,294.575653 419.952759,299.651642 419.462280,304.409912 
	C407.096924,294.953491 395.497528,285.200134 382.988586,276.801453 
	C373.330078,270.316559 362.977417,264.341858 352.133942,260.268555 
	C335.979950,254.200424 319.272156,249.398193 302.504120,245.254715 
	C293.083130,242.926727 283.083588,242.385147 273.316223,242.129883 
	C253.326050,241.607452 233.305801,241.756821 213.760620,247.012695 
	C200.750412,250.511230 187.622314,253.664169 174.824036,257.824158 
	C166.784531,260.437317 159.248657,264.607880 151.504745,268.119202 
	C147.144608,270.096252 142.561646,271.736053 138.523407,274.243469 
	C114.808006,288.968689 93.138435,306.084564 74.865120,327.455566 
	C58.671288,346.394592 44.958996,366.860931 34.954735,389.609100 
	C28.334686,404.662109 21.948843,419.976868 17.368462,435.729889 
	C10.964577,457.754333 8.185643,480.619171 7.141857,503.524109 
	C6.255718,522.969727 7.167455,542.415649 9.903719,561.776733 
	C12.120917,577.465088 15.065420,592.897522 19.942368,608.018311 
	C26.991140,629.872681 35.419418,651.077393 46.996971,670.959473 
	C60.145424,693.539124 76.957329,713.254333 95.338837,731.610596 
	C102.134705,738.397217 109.822922,744.489502 117.819489,749.826599 
	C129.168137,757.400940 140.683884,765.051819 153.012680,770.759583 
	C175.639465,781.235107 199.334961,788.834656 224.260147,792.030396 
	C241.049667,794.183105 257.765594,795.664734 274.785645,794.180542 
	C289.992981,792.854431 305.170258,792.384827 319.780426,787.097046 
	C330.150116,783.344055 341.109589,781.145264 351.313995,777.032471 
	C361.091156,773.091675 370.402618,767.874023 379.598541,762.653442 
	C386.171967,758.921814 392.479828,754.593628 398.426025,749.920593 
	C404.901245,744.831726 410.796600,739.008179 417.023956,733.596008 
	C417.627869,733.071228 418.789368,733.188110 419.882294,732.968933 
	C420.601105,743.922363 421.228180,754.587097 422.022491,765.239258 
	C422.686340,774.141479 426.627106,778.811096 436.755493,778.902771 
	C466.749298,779.174561 496.747131,779.000122 526.743408,779.000000 
	C537.352112,779.000000 541.999939,774.416809 541.999939,763.955505 
	C542.000000,645.137024 542.000000,526.318481 542.000000,406.500000 
M747.501404,374.999298 
	C740.240173,388.909088 732.285767,402.570618 728.088135,417.792297 
	C723.317688,435.091339 718.697632,452.478180 715.181030,470.060638 
	C712.758423,482.173309 711.759277,494.656769 711.172363,507.024231 
	C710.671814,517.569702 711.738586,528.184509 711.982361,538.771606 
	C712.316467,553.277893 714.349854,567.486145 717.912537,581.586853 
	C723.503540,603.715332 729.270874,625.577576 739.708557,646.223694 
	C747.884033,662.394897 756.959351,677.793213 767.767273,692.219666 
	C771.808960,697.614502 776.326233,702.699036 781.006409,707.559387 
	C789.640930,716.526428 798.331421,725.464905 807.443787,733.936279 
	C812.398132,738.542114 818.598633,741.792114 823.659424,746.301758 
	C835.775208,757.098267 850.377563,764.028015 864.699890,770.574036 
	C881.757019,778.369873 899.950195,784.359680 918.240173,788.579407 
	C935.123657,792.474670 952.743164,793.722107 970.120422,794.744019 
	C981.710815,795.425659 993.437378,793.445435 1005.116333,793.058411 
	C1019.495605,792.581970 1033.300659,789.150391 1047.042480,785.432190 
	C1065.317627,780.487549 1083.248291,775.043030 1100.559570,766.695923 
	C1118.697876,757.950073 1135.491821,747.542480 1151.574585,735.757446 
	C1157.029297,731.760437 1161.748657,726.730774 1166.643433,722.006592 
	C1171.612427,717.210632 1176.851807,712.580872 1181.119019,707.201233 
	C1186.134033,700.878845 1185.108398,693.625977 1179.427246,687.923340 
	C1171.168335,679.633240 1162.935303,671.315979 1154.580933,663.122864 
	C1149.748169,658.383301 1144.583374,653.980591 1139.782959,649.210022 
	C1135.811157,645.262878 1132.214111,640.941650 1128.340820,636.891418 
	C1124.745728,633.131836 1120.710815,629.757080 1117.390747,625.777954 
	C1110.871460,617.964478 1101.290894,616.441162 1094.752686,622.799133 
	C1081.016724,636.156189 1065.155273,646.404724 1048.122681,654.942322 
	C1045.434448,656.289734 1042.415405,656.960144 1039.612183,658.098145 
	C1024.067749,664.408264 1008.058899,669.659790 991.357971,670.728699 
	C976.084290,671.706299 960.758667,671.522522 945.519409,667.212708 
	C917.979187,659.424011 893.904114,646.650757 874.517517,625.172729 
	C860.428040,609.563232 849.802734,592.170288 843.464722,572.000000 
	C845.294434,572.000000 847.112366,572.000000 848.930298,572.000000 
	C963.423279,572.000000 1077.916382,571.924255 1192.409180,572.107178 
	C1205.039429,572.127319 1207.041016,568.255859 1210.864990,558.236572 
	C1217.783081,540.110291 1219.226196,520.894043 1219.898926,501.700836 
	C1220.175659,493.803619 1219.569336,485.848389 1218.940063,477.953339 
	C1218.161987,468.192261 1217.841431,458.264221 1215.707642,448.771484 
	C1212.306030,433.638794 1208.236938,418.576782 1203.195557,403.916321 
	C1198.898071,391.419403 1194.522705,378.854980 1186.542114,367.812592 
	C1179.296509,357.787170 1174.020996,346.312225 1166.560181,336.474945 
	C1157.837158,324.973419 1148.551147,313.605469 1137.919189,303.926208 
	C1126.860596,293.858459 1114.248047,285.346588 1101.664673,277.153412 
	C1092.145264,270.955261 1082.052612,265.063202 1071.415771,261.284912 
	C1053.501465,254.921570 1035.088867,249.790710 1016.614441,245.244705 
	C1007.191223,242.925964 997.190247,242.318863 987.428894,242.144012 
	C967.620239,241.789185 947.746521,241.188171 928.336365,246.880478 
	C922.324280,248.643616 915.797607,248.599472 909.714417,250.182114 
	C891.038635,255.041000 872.675171,260.893951 855.863525,270.650391 
	C844.989563,276.960999 833.841003,282.956512 823.673767,290.284088 
	C812.703552,298.190399 802.036194,306.790558 792.514343,316.359436 
	C782.017395,326.908234 772.599792,338.611420 763.430298,350.371826 
	C757.598755,357.851288 753.074890,366.350342 747.501404,374.999298 
M2922.626953,268.966187 
	C2919.846436,267.329742 2917.202637,265.377625 2914.263916,264.107422 
	C2893.073730,254.948135 2870.571777,250.129654 2848.191406,245.243225 
	C2837.247070,242.853729 2825.764893,242.538239 2814.496094,242.140457 
	C2804.770508,241.797165 2794.996094,243.050262 2785.253418,242.909958 
	C2770.616943,242.699127 2756.703857,246.616699 2742.702393,249.816833 
	C2724.705322,253.930084 2706.989258,258.617432 2690.361328,267.495911 
	C2678.457764,273.851685 2666.170898,279.285706 2654.759766,286.773865 
	C2642.885986,294.565491 2631.858154,303.203308 2621.020996,312.301117 
	C2607.022949,324.052094 2595.337158,337.854767 2584.106201,352.062927 
	C2578.736084,358.856445 2574.728027,366.708740 2569.651611,373.756378 
	C2558.541016,389.182037 2551.615723,406.694489 2545.217529,424.265289 
	C2540.297852,437.775635 2536.778564,451.952087 2534.203369,466.117249 
	C2531.497314,481.001099 2530.156494,496.191742 2529.179932,511.310333 
	C2528.554199,520.997925 2529.284180,530.829956 2530.098389,540.539124 
	C2531.077881,552.217102 2531.755127,564.079651 2534.444824,575.415771 
	C2538.016846,590.467102 2543.102539,605.190613 2548.093262,619.866028 
	C2554.344971,638.248779 2563.797607,655.064331 2574.594482,671.155457 
	C2587.023438,689.678894 2600.832031,707.051636 2618.025391,721.382751 
	C2630.123047,731.466492 2642.292236,741.587769 2655.284912,750.436340 
	C2666.242188,757.898560 2678.078369,764.334778 2690.173340,769.788025 
	C2702.387207,775.294861 2715.268555,779.450928 2728.092529,783.443848 
	C2745.066162,788.728821 2762.424805,792.806885 2780.212402,793.852417 
	C2793.002930,794.604248 2805.874512,794.112854 2818.707764,793.971924 
	C2835.364258,793.789001 2851.650146,791.503601 2867.856445,787.200500 
	C2888.363525,781.755371 2908.417725,775.649231 2927.513672,766.089600 
	C2954.531982,752.564087 2978.785889,735.261536 3000.065918,714.085938 
	C3012.945557,701.269104 3025.053467,687.482300 3034.172607,671.475220 
	C3041.809570,658.069946 3050.217773,645.051880 3057.040771,631.247681 
	C3067.273193,610.544678 3072.012451,587.940430 3076.817627,565.535461 
	C3079.197998,554.435791 3080.260010,542.955505 3080.822754,531.593140 
	C3081.328369,521.385071 3080.810059,511.059357 3079.881104,500.864105 
	C3078.703857,487.942352 3077.602539,474.887726 3074.774414,462.270111 
	C3069.800537,440.078766 3063.749023,418.199738 3053.128418,397.727875 
	C3041.728271,375.752258 3029.392578,354.575226 3012.126221,336.608459 
	C3005.678955,329.899323 2999.387207,323.038727 2992.861084,316.407990 
	C2980.918945,304.274567 2967.230225,294.251678 2952.968506,285.138794 
	C2943.532715,279.109650 2933.280029,274.359039 2922.626953,268.966187 
M3142.003174,280.495819 
	C3141.292236,280.872314 3140.458252,281.116364 3139.889648,281.645905 
	C3134.053711,287.080170 3128.722412,293.185425 3122.354248,297.890839 
	C3111.094482,306.210388 3105.101318,318.518616 3097.548340,329.500244 
	C3092.676025,336.584595 3089.418457,345.242737 3087.314697,353.664520 
	C3083.759766,367.896759 3080.760254,382.410126 3079.345703,396.981873 
	C3078.482422,405.875214 3080.358643,415.233856 3082.173340,424.145416 
	C3085.750000,441.711609 3090.296631,459.060608 3102.070557,473.370728 
	C3109.047607,481.850983 3115.836426,490.513336 3123.237549,498.611847 
	C3137.675293,514.410095 3156.051514,525.049133 3174.329102,535.513611 
	C3187.074463,542.810547 3200.512695,549.010315 3214.005371,554.859558 
	C3230.574219,562.042236 3247.544434,568.295715 3264.297363,575.058960 
	C3272.161377,578.233704 3279.990723,581.512512 3287.716064,585.008484 
	C3300.432129,590.762695 3311.969238,598.243713 3322.942139,607.022949 
	C3331.993896,614.264771 3334.714600,628.720093 3332.041260,637.275452 
	C3327.819336,650.785217 3317.418213,658.056030 3305.283936,662.872620 
	C3288.107422,669.690796 3270.174072,672.154297 3251.555664,671.200195 
	C3238.610352,670.536865 3226.071289,668.567932 3213.610840,665.263611 
	C3196.556641,660.741089 3181.502686,652.450012 3167.421875,642.004944 
	C3155.693604,633.305176 3145.984863,622.811829 3137.973877,610.692444 
	C3131.145752,600.362305 3118.493408,603.038269 3113.146729,610.471008 
	C3111.258057,613.096069 3109.386963,615.755493 3107.260010,618.182312 
	C3103.457520,622.521912 3099.361816,626.605530 3095.574707,630.958069 
	C3085.148438,642.941223 3074.732178,654.935486 3064.492432,667.077637 
	C3060.378662,671.955872 3054.319824,676.429749 3056.197510,683.842224 
	C3057.391602,688.554260 3060.125488,693.018921 3062.809082,697.181824 
	C3068.818848,706.504822 3075.288818,715.382141 3082.728760,723.806885 
	C3093.417236,735.909546 3105.614258,745.972107 3118.677002,754.921021 
	C3129.779297,762.526978 3141.781250,769.014038 3153.937012,774.845276 
	C3175.230713,785.059998 3198.483887,789.032166 3221.370361,793.815918 
	C3229.968262,795.613098 3238.992432,795.735596 3247.836426,795.910034 
	C3262.888428,796.206970 3277.888184,796.065918 3292.696289,792.135681 
	C3305.134521,788.834534 3318.036865,787.257324 3330.431641,783.825317 
	C3341.711182,780.702087 3352.766357,776.732117 3362.787842,770.147339 
	C3371.727539,764.272949 3381.492188,759.664795 3390.549072,753.952820 
	C3395.099854,751.082581 3399.093994,747.213440 3402.976318,743.423706 
	C3411.759033,734.851318 3421.516113,726.925537 3428.679199,717.129517 
	C3439.060791,702.932251 3447.886230,687.371277 3452.225342,670.091980 
	C3455.366943,657.582397 3457.372314,644.707275 3458.785156,631.874084 
	C3459.624512,624.252014 3458.721924,616.353394 3457.889648,608.656067 
	C3457.076172,601.131409 3455.494629,593.677246 3454.007812,586.240601 
	C3451.291748,572.657227 3443.539062,561.381531 3436.353271,550.029114 
	C3425.594238,533.030762 3409.882324,520.636902 3393.798828,509.234497 
	C3380.743408,499.978699 3366.392578,492.462128 3352.249756,484.855377 
	C3340.831543,478.713989 3328.980957,473.331635 3317.115723,468.077911 
	C3302.178467,461.463593 3287.121582,455.097137 3271.951904,449.035583 
	C3253.444580,441.640564 3235.387695,433.422913 3218.999512,421.961304 
	C3211.611816,416.794434 3206.727783,409.603851 3206.128418,400.552826 
	C3205.341309,388.663086 3213.843994,376.955627 3225.438721,372.179901 
	C3243.277100,364.832642 3261.800293,363.484711 3280.658447,366.080658 
	C3297.530273,368.403198 3312.591309,375.557678 3326.499512,385.096405 
	C3336.872559,392.210724 3344.225830,402.343201 3352.010010,411.994202 
	C3356.067383,417.024292 3364.324707,417.643677 3369.200195,413.545380 
	C3378.079102,406.082764 3387.103760,398.793701 3396.069824,391.434967 
	C3401.614502,386.884338 3407.164307,382.340546 3412.709229,377.790253 
	C3420.045410,371.770142 3427.378174,365.745514 3434.714111,359.725159 
	C3439.804932,355.547485 3444.832520,347.973907 3441.767822,340.161987 
	C3435.908203,325.224701 3426.209229,313.000977 3415.727539,301.250153 
	C3404.714355,288.903107 3391.210693,279.429932 3377.125000,271.307129 
	C3363.901123,263.681091 3349.671875,257.394501 3335.241211,252.366150 
	C3316.854736,245.959534 3297.467773,243.051147 3278.012207,242.143326 
	C3259.770996,241.292160 3241.627930,242.693146 3223.496582,245.764725 
	C3205.858643,248.752625 3189.545410,255.002335 3173.302002,261.934052 
	C3162.259766,266.646118 3152.225342,272.979340 3142.003174,280.495819 
M703.000000,131.500000 
	C703.000000,116.000732 703.002502,100.501457 702.999023,85.002190 
	C702.997192,76.723984 698.342957,72.002678 690.169617,72.001656 
	C657.837708,71.997620 625.505737,71.998863 593.173828,72.000732 
	C584.056152,72.001259 579.000671,77.040268 579.000671,86.129509 
	C578.999756,312.453033 579.028076,538.776550 578.872925,765.100037 
	C578.867981,772.351807 584.615173,778.208252 591.925415,778.137817 
	C624.754272,777.821533 657.587891,778.000305 690.419800,777.999878 
	C699.255432,777.999756 702.999756,774.271423 702.999756,765.472595 
	C703.000000,554.481750 703.000000,343.490875 703.000000,131.500000 
M2300.368896,120.032555 
	C2290.796387,113.071815 2281.375000,105.891212 2271.617676,99.199791 
	C2255.238281,87.966728 2237.477783,79.456047 2217.441895,78.209335 
	C2198.203125,77.012230 2179.110840,78.398476 2161.187744,87.198837 
	C2150.161621,92.612778 2140.063232,98.663246 2130.723145,107.064484 
	C2120.420654,116.331253 2113.862305,127.702095 2107.231445,139.076614 
	C2100.600586,150.450928 2097.197754,163.344604 2094.996582,176.410172 
	C2093.362793,186.108810 2096.338379,190.952850 2105.654297,194.027863 
	C2108.844238,195.080719 2111.958252,196.365631 2115.096924,197.570602 
	C2128.516357,202.722290 2141.892578,207.989365 2155.366455,212.994446 
	C2161.543701,215.289108 2167.687012,212.632492 2169.937500,206.759750 
	C2172.507812,200.052551 2174.458008,193.106476 2177.062988,186.414139 
	C2180.290527,178.122375 2184.535889,170.129364 2191.809082,164.863785 
	C2201.665283,157.727844 2212.830811,157.948807 2223.019775,163.771423 
	C2233.733154,169.893875 2244.274414,176.676086 2253.694336,184.593735 
	C2261.727539,191.345947 2270.132080,197.205948 2279.342529,201.943970 
	C2285.994141,205.365814 2292.856445,208.580917 2299.947998,210.900513 
	C2312.859619,215.123810 2326.092773,216.218536 2339.818359,215.241638 
	C2355.588867,214.119171 2370.256104,210.640991 2384.374756,203.400314 
	C2400.249756,195.259064 2412.910889,183.638443 2422.857422,169.277969 
	C2428.175049,161.600342 2431.225098,152.377350 2435.557617,143.985397 
	C2440.744873,133.937088 2443.667969,123.333321 2443.962158,112.056030 
	C2444.125000,105.820869 2441.823975,103.073151 2435.937012,100.945244 
	C2427.665771,97.955376 2419.445801,94.818901 2411.240723,91.650703 
	C2403.030518,88.480591 2394.944580,84.973473 2386.661377,82.013863 
	C2375.880127,78.161766 2370.327637,80.968887 2367.018799,91.685356 
	C2363.361572,103.530838 2360.088135,115.332710 2351.195312,124.903183 
	C2346.203857,130.275375 2340.852539,133.530426 2333.792236,133.958801 
	C2320.731201,134.751251 2310.280273,128.931213 2300.368896,120.032555 
z"/>
<path fill="#FFFFFF" opacity="1.000000" stroke="none" 
	d="
M1973.998779,425.213074 
	C1975.003174,440.258240 1974.919922,455.033966 1977.431885,469.354492 
	C1978.856445,477.476166 1978.893921,485.371033 1978.906860,493.337433 
	C1979.053711,583.831604 1978.923096,674.326233 1979.143433,764.820068 
	C1979.161377,772.193848 1971.814331,779.211426 1964.783813,779.141907 
	C1932.288940,778.820496 1899.789062,778.965149 1867.291138,779.024048 
	C1858.931641,779.039185 1853.876709,774.133301 1853.893555,765.455261 
	C1854.066895,675.961121 1854.161621,586.465881 1853.822144,496.972717 
	C1853.772217,483.830780 1851.775269,470.635193 1849.885498,457.579224 
	C1848.155640,445.627808 1845.954102,433.671814 1842.856323,422.011108 
	C1839.591797,409.722931 1833.070923,399.173065 1824.387451,389.494019 
	C1813.506104,377.365112 1799.985962,372.140839 1784.632324,370.037506 
	C1778.001343,369.129089 1771.267822,367.834473 1764.653442,368.165680 
	C1748.810547,368.959167 1732.998657,370.539825 1718.485596,377.928223 
	C1696.787354,388.974487 1683.281006,406.613068 1675.660645,429.526978 
	C1670.812866,444.103546 1667.981934,458.915039 1667.001709,474.161377 
	C1666.316528,484.817841 1665.107666,495.475525 1665.088257,506.134399 
	C1664.931152,592.628784 1664.895752,679.123901 1665.191772,765.617493 
	C1665.216309,772.770996 1658.994751,779.181152 1651.524292,779.117676 
	C1619.195312,778.842896 1586.862549,779.006470 1554.531250,778.995911 
	C1545.104370,778.992859 1540.000000,773.960083 1540.000000,764.735474 
	C1540.000000,673.241150 1540.328369,581.744812 1539.781250,490.253754 
	C1539.634644,465.748260 1537.480713,441.215363 1529.133179,417.659637 
	C1525.260742,406.731750 1519.040039,397.632721 1511.593140,389.001343 
	C1501.133179,376.878021 1487.311768,372.080780 1472.144897,370.040558 
	C1465.347046,369.126129 1458.462036,367.910553 1451.661865,368.144470 
	C1432.759766,368.794739 1414.493896,371.907593 1397.931519,382.305634 
	C1390.400513,387.033539 1384.680908,393.388458 1379.176758,399.827087 
	C1365.280640,416.082397 1360.668457,436.152618 1356.742676,456.640381 
	C1354.519043,468.244904 1352.990356,479.704071 1352.938721,491.497375 
	C1352.767700,530.581543 1352.164795,569.664001 1352.041260,608.748108 
	C1351.874878,661.411011 1352.000366,714.074829 1351.999512,766.738220 
	C1351.999390,774.432617 1347.612793,778.985168 1340.044800,778.990356 
	C1307.046875,779.012878 1274.048828,779.014282 1241.050903,778.990417 
	C1232.405640,778.984131 1227.001465,773.572510 1227.001343,765.048645 
	C1226.999634,600.725464 1226.999634,436.402344 1227.000854,272.079193 
	C1227.000854,263.060852 1232.151611,258.000854 1241.323364,258.000488 
	C1271.321533,257.999207 1301.321411,258.184052 1331.317017,257.905945 
	C1342.697998,257.800415 1345.779907,262.312042 1346.925903,272.156860 
	C1347.667236,278.526123 1347.706299,284.977142 1348.119019,292.460876 
	C1351.559082,289.720520 1354.518188,287.309479 1357.534668,284.972626 
	C1362.283569,281.293793 1366.766724,277.146576 1371.908081,274.126923 
	C1381.483276,268.503204 1391.059326,262.527466 1401.355469,258.574951 
	C1414.020142,253.713226 1427.321289,250.358932 1440.538452,247.138138 
	C1450.060669,244.817780 1459.844727,243.054688 1469.605103,242.371155 
	C1479.804565,241.656891 1490.126465,242.301697 1500.373657,242.794662 
	C1507.032349,243.114975 1513.786133,243.640289 1520.261230,245.112289 
	C1531.796265,247.734497 1543.283691,250.732178 1554.550659,254.326096 
	C1569.159058,258.985809 1581.575928,267.888489 1593.440308,277.204987 
	C1605.199097,286.438599 1615.100098,297.638275 1622.967896,310.514954 
	C1625.894043,315.303741 1629.238647,319.836792 1632.562378,324.737244 
	C1637.941772,318.714355 1643.305908,312.416412 1648.991943,306.423737 
	C1654.751343,300.353668 1661.036987,294.778137 1666.720459,288.641663 
	C1676.119751,278.493225 1688.354370,272.248718 1699.874268,265.369568 
	C1709.789795,259.448456 1721.213501,255.800232 1732.307861,252.181656 
	C1742.172852,248.963989 1752.437744,246.841965 1762.645752,244.849365 
	C1770.141113,243.386246 1777.819336,242.272095 1785.434937,242.145721 
	C1797.843872,241.939819 1810.317749,242.107834 1822.669312,243.195389 
	C1831.078125,243.935760 1839.545044,245.833054 1847.593384,248.429474 
	C1859.908569,252.402405 1872.534302,256.225098 1883.824219,262.335968 
	C1895.264526,268.528137 1905.874878,276.296082 1915.305054,285.929962 
	C1925.639282,296.487457 1934.074097,308.188995 1941.733765,320.509949 
	C1946.422607,328.052307 1949.528442,336.584900 1953.276367,344.704559 
	C1958.999268,357.102631 1963.572754,369.889313 1966.063477,383.359253 
	C1968.383789,395.907501 1970.681152,408.459991 1973.014771,421.005737 
	C1973.250244,422.271973 1973.665771,423.504700 1973.998779,425.213074 
z"/>
<path fill="#FFFFFF" opacity="1.000000" stroke="none" 
	d="
M2278.878906,792.000000 
	C2265.508057,793.000000 2252.569092,795.020569 2239.677979,794.753235 
	C2221.770508,794.381714 2203.702881,793.809631 2186.240967,788.958557 
	C2168.195557,783.945435 2149.793457,779.709595 2133.127441,770.876282 
	C2121.228271,764.569458 2109.679932,757.486023 2098.510742,749.954346 
	C2090.010742,744.222534 2081.815918,737.796204 2074.462891,730.670227 
	C2066.090088,722.556091 2058.957764,713.178162 2051.009521,704.606140 
	C2036.558350,689.021057 2025.799683,670.949585 2016.725952,652.008789 
	C2005.837158,629.279053 1996.607666,605.792908 1993.044189,580.575134 
	C1991.108521,566.877197 1990.561768,552.918884 1987.692749,539.438965 
	C1985.685547,530.007812 1985.801392,520.737976 1986.199097,511.473755 
	C1986.721436,499.302948 1988.756226,487.202271 1989.976562,475.054932 
	C1991.742432,457.474426 1995.429688,440.265778 2000.949585,423.545563 
	C2009.942505,396.306030 2021.709473,370.327911 2039.218018,347.353821 
	C2047.315063,336.729218 2055.332520,325.920166 2064.540527,316.299408 
	C2074.602539,305.786377 2085.235596,295.638916 2097.869141,288.016113 
	C2111.100342,280.032623 2123.892822,271.158264 2137.696289,264.329803 
	C2154.254883,256.138489 2172.001709,250.812012 2190.397705,247.951431 
	C2201.697266,246.194366 2212.864502,243.103378 2224.212402,242.277039 
	C2235.713135,241.439575 2247.371094,242.486633 2258.944824,243.032562 
	C2265.291016,243.331940 2271.672852,243.928818 2277.918701,245.055298 
	C2287.219727,246.732681 2296.593750,248.408798 2305.609375,251.158676 
	C2317.227783,254.702484 2329.044434,258.269196 2339.834961,263.696228 
	C2356.111328,271.882172 2372.098877,280.868622 2385.388184,293.799042 
	C2389.657959,297.953644 2394.404785,301.618225 2399.163574,305.704590 
	C2399.773193,301.077179 2400.588379,296.442291 2400.950439,291.772278 
	C2401.472900,285.035583 2401.788330,278.276581 2401.965332,271.521118 
	C2402.137451,264.941315 2407.164795,257.622009 2415.786865,257.781036 
	C2446.274414,258.343292 2476.782227,258.238861 2507.275146,257.843872 
	C2515.636475,257.735596 2522.079834,263.550293 2522.070557,272.690826 
	C2521.960938,381.350647 2522.000000,490.010559 2522.000000,598.670471 
	C2522.000000,653.667053 2522.000488,708.663574 2521.999268,763.660156 
	C2521.999023,773.622864 2516.679688,778.998657 2506.819092,778.999329 
	C2476.654297,779.001221 2446.489502,779.009888 2416.324707,778.993896 
	C2407.390381,778.989197 2402.559570,774.348572 2401.995117,765.397278 
	C2401.323486,754.735779 2400.614014,744.076660 2399.843506,732.225891 
	C2397.500244,733.556396 2395.421875,734.291382 2393.919434,735.659180 
	C2380.768555,747.631531 2366.752441,758.213440 2351.278076,767.237244 
	C2335.204346,776.610352 2317.948242,782.057861 2300.336426,786.955444 
	C2293.403564,788.883301 2286.337891,790.332642 2278.878906,792.000000 
M2362.016113,417.525024 
	C2351.714600,403.884888 2338.226807,393.717773 2323.821533,385.200134 
	C2304.468018,373.756683 2282.786133,368.611664 2260.438477,368.273438 
	C2247.980957,368.084930 2235.371338,370.022308 2223.025635,372.141327 
	C2201.110107,375.903015 2182.031006,386.518585 2165.293213,400.541138 
	C2146.834229,416.005798 2132.690918,435.143890 2123.641602,457.762299 
	C2117.780762,472.410645 2114.351562,487.644958 2113.135010,503.281830 
	C2112.400879,512.718079 2112.486084,522.294495 2113.155273,531.740417 
	C2113.735840,539.935730 2115.256836,548.126343 2117.070801,556.159058 
	C2120.436035,571.060913 2125.906494,585.074036 2133.826416,598.350708 
	C2141.265137,610.820618 2150.033203,622.190918 2160.634766,631.696106 
	C2172.263672,642.122803 2185.135986,651.203491 2199.995117,657.076782 
	C2217.275146,663.906982 2235.209961,667.812195 2253.614014,668.752930 
	C2262.269043,669.195374 2271.054688,666.962036 2279.788818,666.011780 
	C2292.560303,664.622314 2304.645752,660.687378 2316.144287,655.264465 
	C2332.520020,647.541260 2347.242432,637.266357 2358.455566,622.854004 
	C2365.585205,613.690369 2372.671143,604.264893 2378.081543,594.058228 
	C2383.130371,584.534607 2386.823486,574.051880 2389.526855,563.581787 
	C2393.495117,548.211792 2397.145508,532.610657 2395.972900,516.473694 
	C2395.467529,509.523834 2395.076172,502.525421 2393.904785,495.673523 
	C2392.086914,485.038483 2390.268555,474.333191 2387.328857,463.976135 
	C2382.488037,446.923340 2373.327637,431.983582 2362.016113,417.525024 
z"/>
<path fill="#FFFFFF" opacity="1.000000" stroke="none" 
	d="
M542.000000,407.000000 
	C542.000000,526.318481 542.000000,645.137024 541.999939,763.955505 
	C541.999939,774.416809 537.352112,779.000000 526.743408,779.000000 
	C496.747131,779.000122 466.749298,779.174561 436.755493,778.902771 
	C426.627106,778.811096 422.686340,774.141479 422.022491,765.239258 
	C421.228180,754.587097 420.601105,743.922363 419.882294,732.968933 
	C418.789368,733.188110 417.627869,733.071228 417.023956,733.596008 
	C410.796600,739.008179 404.901245,744.831726 398.426025,749.920593 
	C392.479828,754.593628 386.171967,758.921814 379.598541,762.653442 
	C370.402618,767.874023 361.091156,773.091675 351.313995,777.032471 
	C341.109589,781.145264 330.150116,783.344055 319.780426,787.097046 
	C305.170258,792.384827 289.992981,792.854431 274.785645,794.180542 
	C257.765594,795.664734 241.049667,794.183105 224.260147,792.030396 
	C199.334961,788.834656 175.639465,781.235107 153.012680,770.759583 
	C140.683884,765.051819 129.168137,757.400940 117.819489,749.826599 
	C109.822922,744.489502 102.134705,738.397217 95.338837,731.610596 
	C76.957329,713.254333 60.145424,693.539124 46.996971,670.959473 
	C35.419418,651.077393 26.991140,629.872681 19.942368,608.018311 
	C15.065420,592.897522 12.120917,577.465088 9.903719,561.776733 
	C7.167455,542.415649 6.255718,522.969727 7.141857,503.524109 
	C8.185643,480.619171 10.964577,457.754333 17.368462,435.729889 
	C21.948843,419.976868 28.334686,404.662109 34.954735,389.609100 
	C44.958996,366.860931 58.671288,346.394592 74.865120,327.455566 
	C93.138435,306.084564 114.808006,288.968689 138.523407,274.243469 
	C142.561646,271.736053 147.144608,270.096252 151.504745,268.119202 
	C159.248657,264.607880 166.784531,260.437317 174.824036,257.824158 
	C187.622314,253.664169 200.750412,250.511230 213.760620,247.012695 
	C233.305801,241.756821 253.326050,241.607452 273.316223,242.129883 
	C283.083588,242.385147 293.083130,242.926727 302.504120,245.254715 
	C319.272156,249.398193 335.979950,254.200424 352.133942,260.268555 
	C362.977417,264.341858 373.330078,270.316559 382.988586,276.801453 
	C395.497528,285.200134 407.096924,294.953491 419.462280,304.409912 
	C419.952759,299.651642 420.514313,294.575653 420.990967,289.491669 
	C421.692139,282.012573 422.127045,274.501678 423.073914,267.054993 
	C423.670227,262.365234 428.894165,258.044281 433.676178,258.034607 
	C466.171997,257.968781 498.668060,257.966736 531.163879,258.035126 
	C536.181335,258.045685 541.946716,262.378510 541.982178,271.517761 
	C542.045471,287.848816 542.000000,304.180267 542.000000,320.511566 
	C542.000000,349.174377 542.000000,377.837189 542.000000,407.000000 
M313.940765,663.578064 
	C328.204498,659.172791 341.829468,653.693787 354.364075,645.149170 
	C368.894775,635.243896 381.000336,622.962708 390.422729,608.582520 
	C397.995636,597.025085 404.163544,584.142334 408.593475,571.048645 
	C412.691956,558.934692 414.612183,545.842590 415.717255,533.028320 
	C416.720581,521.393738 415.401245,509.550751 414.986267,497.803894 
	C414.306580,478.563416 407.362915,461.062256 399.372528,443.975647 
	C394.405273,433.353607 387.355652,424.104980 379.884735,414.939667 
	C369.140259,401.758423 355.734833,392.405640 341.457733,384.063049 
	C334.883942,380.221771 327.476807,377.687714 320.253479,375.103302 
	C307.646637,370.592743 294.400116,368.827271 281.149414,368.197235 
	C272.866791,367.803406 264.472809,369.145874 256.163879,370.036255 
	C239.010681,371.874420 222.981705,377.175385 207.842163,385.537750 
	C189.373703,395.738800 173.789017,409.482361 161.678848,426.359222 
	C153.254990,438.098846 146.526901,451.475861 141.364166,465.007660 
	C136.881943,476.755798 134.854996,489.645996 133.256287,502.223816 
	C131.985214,512.224060 132.745529,522.523682 133.099991,532.673035 
	C133.297821,538.337585 133.940140,544.117188 135.387741,549.578430 
	C137.877213,558.970093 140.657272,568.348816 144.217926,577.377014 
	C149.229782,590.084778 154.900909,602.556213 164.316833,612.840393 
	C166.527939,615.255371 168.974991,617.569946 170.662689,620.328857 
	C178.550781,633.223633 191.531891,640.558167 203.310059,648.612244 
	C215.115250,656.684875 229.049820,661.516968 243.422272,664.096741 
	C249.473419,665.182922 255.777695,665.482056 261.539398,667.413940 
	C270.544220,670.433411 279.590332,669.127625 288.503448,668.558716 
	C296.794952,668.029419 304.963623,665.576233 313.940765,663.578064 
z"/>
<path fill="#FFFFFF" opacity="1.000000" stroke="none" 
	d="
M747.733032,374.695740 
	C753.074890,366.350342 757.598755,357.851288 763.430298,350.371826 
	C772.599792,338.611420 782.017395,326.908234 792.514343,316.359436 
	C802.036194,306.790558 812.703552,298.190399 823.673767,290.284088 
	C833.841003,282.956512 844.989563,276.960999 855.863525,270.650391 
	C872.675171,260.893951 891.038635,255.041000 909.714417,250.182114 
	C915.797607,248.599472 922.324280,248.643616 928.336365,246.880478 
	C947.746521,241.188171 967.620239,241.789185 987.428894,242.144012 
	C997.190247,242.318863 1007.191223,242.925964 1016.614441,245.244705 
	C1035.088867,249.790710 1053.501465,254.921570 1071.415771,261.284912 
	C1082.052612,265.063202 1092.145264,270.955261 1101.664673,277.153412 
	C1114.248047,285.346588 1126.860596,293.858459 1137.919189,303.926208 
	C1148.551147,313.605469 1157.837158,324.973419 1166.560181,336.474945 
	C1174.020996,346.312225 1179.296509,357.787170 1186.542114,367.812592 
	C1194.522705,378.854980 1198.898071,391.419403 1203.195557,403.916321 
	C1208.236938,418.576782 1212.306030,433.638794 1215.707642,448.771484 
	C1217.841431,458.264221 1218.161987,468.192261 1218.940063,477.953339 
	C1219.569336,485.848389 1220.175659,493.803619 1219.898926,501.700836 
	C1219.226196,520.894043 1217.783081,540.110291 1210.864990,558.236572 
	C1207.041016,568.255859 1205.039429,572.127319 1192.409180,572.107178 
	C1077.916382,571.924255 963.423279,572.000000 848.930298,572.000000 
	C847.112366,572.000000 845.294434,572.000000 843.464722,572.000000 
	C849.802734,592.170288 860.428040,609.563232 874.517517,625.172729 
	C893.904114,646.650757 917.979187,659.424011 945.519409,667.212708 
	C960.758667,671.522522 976.084290,671.706299 991.357971,670.728699 
	C1008.058899,669.659790 1024.067749,664.408264 1039.612183,658.098145 
	C1042.415405,656.960144 1045.434448,656.289734 1048.122681,654.942322 
	C1065.155273,646.404724 1081.016724,636.156189 1094.752686,622.799133 
	C1101.290894,616.441162 1110.871460,617.964478 1117.390747,625.777954 
	C1120.710815,629.757080 1124.745728,633.131836 1128.340820,636.891418 
	C1132.214111,640.941650 1135.811157,645.262878 1139.782959,649.210022 
	C1144.583374,653.980591 1149.748169,658.383301 1154.580933,663.122864 
	C1162.935303,671.315979 1171.168335,679.633240 1179.427246,687.923340 
	C1185.108398,693.625977 1186.134033,700.878845 1181.119019,707.201233 
	C1176.851807,712.580872 1171.612427,717.210632 1166.643433,722.006592 
	C1161.748657,726.730774 1157.029297,731.760437 1151.574585,735.757446 
	C1135.491821,747.542480 1118.697876,757.950073 1100.559570,766.695923 
	C1083.248291,775.043030 1065.317627,780.487549 1047.042480,785.432190 
	C1033.300659,789.150391 1019.495605,792.581970 1005.116333,793.058411 
	C993.437378,793.445435 981.710815,795.425659 970.120422,794.744019 
	C952.743164,793.722107 935.123657,792.474670 918.240173,788.579407 
	C899.950195,784.359680 881.757019,778.369873 864.699890,770.574036 
	C850.377563,764.028015 835.775208,757.098267 823.659424,746.301758 
	C818.598633,741.792114 812.398132,738.542114 807.443787,733.936279 
	C798.331421,725.464905 789.640930,716.526428 781.006409,707.559387 
	C776.326233,702.699036 771.808960,697.614502 767.767273,692.219666 
	C756.959351,677.793213 747.884033,662.394897 739.708557,646.223694 
	C729.270874,625.577576 723.503540,603.715332 717.912537,581.586853 
	C714.349854,567.486145 712.316467,553.277893 711.982361,538.771606 
	C711.738586,528.184509 710.671814,517.569702 711.172363,507.024231 
	C711.759277,494.656769 712.758423,482.173309 715.181030,470.060638 
	C718.697632,452.478180 723.317688,435.091339 728.088135,417.792297 
	C732.285767,402.570618 740.240173,388.909088 747.733032,374.695740 
M924.516663,374.999695 
	C877.760498,391.398407 845.918335,439.613342 842.512024,466.747070 
	C925.943909,466.747070 1009.378235,466.747070 1093.117188,466.747070 
	C1092.947632,464.357635 1093.277832,462.058716 1092.565308,460.148712 
	C1089.056396,450.741669 1085.706665,441.235352 1081.486206,432.142212 
	C1074.141846,416.318604 1063.969116,402.629333 1050.219849,391.508667 
	C1041.452026,384.417023 1032.260986,378.326630 1021.755249,374.379303 
	C1004.104736,367.747467 985.939148,363.624298 966.935913,365.089172 
	C961.534241,365.505554 956.154663,366.751892 950.872864,368.055084 
	C942.312927,370.167114 933.842163,372.640533 924.516663,374.999695 
z"/>
<path fill="#FFFFFF" opacity="1.000000" stroke="none" 
	d="
M2923.010010,269.001129 
	C2933.280029,274.359039 2943.532715,279.109650 2952.968506,285.138794 
	C2967.230225,294.251678 2980.918945,304.274567 2992.861084,316.407990 
	C2999.387207,323.038727 3005.678955,329.899323 3012.126221,336.608459 
	C3029.392578,354.575226 3041.728271,375.752258 3053.128418,397.727875 
	C3063.749023,418.199738 3069.800537,440.078766 3074.774414,462.270111 
	C3077.602539,474.887726 3078.703857,487.942352 3079.881104,500.864105 
	C3080.810059,511.059357 3081.328369,521.385071 3080.822754,531.593140 
	C3080.260010,542.955505 3079.197998,554.435791 3076.817627,565.535461 
	C3072.012451,587.940430 3067.273193,610.544678 3057.040771,631.247681 
	C3050.217773,645.051880 3041.809570,658.069946 3034.172607,671.475220 
	C3025.053467,687.482300 3012.945557,701.269104 3000.065918,714.085938 
	C2978.785889,735.261536 2954.531982,752.564087 2927.513672,766.089600 
	C2908.417725,775.649231 2888.363525,781.755371 2867.856445,787.200500 
	C2851.650146,791.503601 2835.364258,793.789001 2818.707764,793.971924 
	C2805.874512,794.112854 2793.002930,794.604248 2780.212402,793.852417 
	C2762.424805,792.806885 2745.066162,788.728821 2728.092529,783.443848 
	C2715.268555,779.450928 2702.387207,775.294861 2690.173340,769.788025 
	C2678.078369,764.334778 2666.242188,757.898560 2655.284912,750.436340 
	C2642.292236,741.587769 2630.123047,731.466492 2618.025391,721.382751 
	C2600.832031,707.051636 2587.023438,689.678894 2574.594482,671.155457 
	C2563.797607,655.064331 2554.344971,638.248779 2548.093262,619.866028 
	C2543.102539,605.190613 2538.016846,590.467102 2534.444824,575.415771 
	C2531.755127,564.079651 2531.077881,552.217102 2530.098389,540.539124 
	C2529.284180,530.829956 2528.554199,520.997925 2529.179932,511.310333 
	C2530.156494,496.191742 2531.497314,481.001099 2534.203369,466.117249 
	C2536.778564,451.952087 2540.297852,437.775635 2545.217529,424.265289 
	C2551.615723,406.694489 2558.541016,389.182037 2569.651611,373.756378 
	C2574.728027,366.708740 2578.736084,358.856445 2584.106201,352.062927 
	C2595.337158,337.854767 2607.022949,324.052094 2621.020996,312.301117 
	C2631.858154,303.203308 2642.885986,294.565491 2654.759766,286.773865 
	C2666.170898,279.285706 2678.457764,273.851685 2690.361328,267.495911 
	C2706.989258,258.617432 2724.705322,253.930084 2742.702393,249.816833 
	C2756.703857,246.616699 2770.616943,242.699127 2785.253418,242.909958 
	C2794.996094,243.050262 2804.770508,241.797165 2814.496094,242.140457 
	C2825.764893,242.538239 2837.247070,242.853729 2848.191406,245.243225 
	C2870.571777,250.129654 2893.073730,254.948135 2914.263916,264.107422 
	C2917.202637,265.377625 2919.846436,267.329742 2923.010010,269.001129 
M2950.002686,554.550842 
	C2951.668457,546.881104 2954.487549,539.251221 2954.754395,531.533142 
	C2955.272461,516.545593 2954.855225,501.709961 2951.416260,486.669312 
	C2945.810791,462.156128 2935.406982,440.354431 2919.554688,421.379883 
	C2905.421631,404.462677 2887.952881,391.377045 2867.772705,381.848938 
	C2848.493652,372.746124 2828.138672,369.115265 2807.202148,368.162903 
	C2799.583984,367.816376 2791.879395,369.311737 2784.217529,370.001312 
	C2768.317871,371.432373 2753.189941,376.055847 2739.107666,383.180603 
	C2724.889893,390.373810 2711.264648,398.818420 2700.483154,411.005096 
	C2694.601807,417.652618 2687.943115,423.730804 2682.837402,430.919525 
	C2674.127441,443.182556 2666.479248,456.148224 2662.001221,470.741364 
	C2655.289551,492.612732 2652.795410,514.759766 2655.908203,537.570190 
	C2658.238525,554.644531 2662.035889,571.090698 2670.957520,586.104858 
	C2677.080078,596.408203 2682.389160,607.040100 2690.993896,615.871582 
	C2698.593018,623.671082 2705.463867,632.098145 2714.657227,638.194153 
	C2719.897217,641.668762 2724.682373,645.948486 2730.206787,648.846985 
	C2737.675293,652.765625 2745.580078,655.900330 2753.435791,659.023804 
	C2768.416748,664.980347 2784.253174,667.270020 2800.137939,668.915405 
	C2813.805176,670.331238 2827.019775,666.601868 2840.243652,663.932312 
	C2860.812744,659.780090 2879.114258,650.492188 2895.623047,637.737732 
	C2900.987305,633.593384 2905.310303,628.097046 2910.690674,623.978088 
	C2921.839844,615.442322 2928.500244,603.379822 2935.748047,592.013855 
	C2942.803467,580.950134 2946.963623,568.283264 2950.002686,554.550842 
z"/>
<path fill="#FFFFFF" opacity="1.000000" stroke="none" 
	d="
M3142.297363,280.265625 
	C3152.225342,272.979340 3162.259766,266.646118 3173.302002,261.934052 
	C3189.545410,255.002335 3205.858643,248.752625 3223.496582,245.764725 
	C3241.627930,242.693146 3259.770996,241.292160 3278.012207,242.143326 
	C3297.467773,243.051147 3316.854736,245.959534 3335.241211,252.366150 
	C3349.671875,257.394501 3363.901123,263.681091 3377.125000,271.307129 
	C3391.210693,279.429932 3404.714355,288.903107 3415.727539,301.250153 
	C3426.209229,313.000977 3435.908203,325.224701 3441.767822,340.161987 
	C3444.832520,347.973907 3439.804932,355.547485 3434.714111,359.725159 
	C3427.378174,365.745514 3420.045410,371.770142 3412.709229,377.790253 
	C3407.164307,382.340546 3401.614502,386.884338 3396.069824,391.434967 
	C3387.103760,398.793701 3378.079102,406.082764 3369.200195,413.545380 
	C3364.324707,417.643677 3356.067383,417.024292 3352.010010,411.994202 
	C3344.225830,402.343201 3336.872559,392.210724 3326.499512,385.096405 
	C3312.591309,375.557678 3297.530273,368.403198 3280.658447,366.080658 
	C3261.800293,363.484711 3243.277100,364.832642 3225.438721,372.179901 
	C3213.843994,376.955627 3205.341309,388.663086 3206.128418,400.552826 
	C3206.727783,409.603851 3211.611816,416.794434 3218.999512,421.961304 
	C3235.387695,433.422913 3253.444580,441.640564 3271.951904,449.035583 
	C3287.121582,455.097137 3302.178467,461.463593 3317.115723,468.077911 
	C3328.980957,473.331635 3340.831543,478.713989 3352.249756,484.855377 
	C3366.392578,492.462128 3380.743408,499.978699 3393.798828,509.234497 
	C3409.882324,520.636902 3425.594238,533.030762 3436.353271,550.029114 
	C3443.539062,561.381531 3451.291748,572.657227 3454.007812,586.240601 
	C3455.494629,593.677246 3457.076172,601.131409 3457.889648,608.656067 
	C3458.721924,616.353394 3459.624512,624.252014 3458.785156,631.874084 
	C3457.372314,644.707275 3455.366943,657.582397 3452.225342,670.091980 
	C3447.886230,687.371277 3439.060791,702.932251 3428.679199,717.129517 
	C3421.516113,726.925537 3411.759033,734.851318 3402.976318,743.423706 
	C3399.093994,747.213440 3395.099854,751.082581 3390.549072,753.952820 
	C3381.492188,759.664795 3371.727539,764.272949 3362.787842,770.147339 
	C3352.766357,776.732117 3341.711182,780.702087 3330.431641,783.825317 
	C3318.036865,787.257324 3305.134521,788.834534 3292.696289,792.135681 
	C3277.888184,796.065918 3262.888428,796.206970 3247.836426,795.910034 
	C3238.992432,795.735596 3229.968262,795.613098 3221.370361,793.815918 
	C3198.483887,789.032166 3175.230713,785.059998 3153.937012,774.845276 
	C3141.781250,769.014038 3129.779297,762.526978 3118.677002,754.921021 
	C3105.614258,745.972107 3093.417236,735.909546 3082.728760,723.806885 
	C3075.288818,715.382141 3068.818848,706.504822 3062.809082,697.181824 
	C3060.125488,693.018921 3057.391602,688.554260 3056.197510,683.842224 
	C3054.319824,676.429749 3060.378662,671.955872 3064.492432,667.077637 
	C3074.732178,654.935486 3085.148438,642.941223 3095.574707,630.958069 
	C3099.361816,626.605530 3103.457520,622.521912 3107.260010,618.182312 
	C3109.386963,615.755493 3111.258057,613.096069 3113.146729,610.471008 
	C3118.493408,603.038269 3131.145752,600.362305 3137.973877,610.692444 
	C3145.984863,622.811829 3155.693604,633.305176 3167.421875,642.004944 
	C3181.502686,652.450012 3196.556641,660.741089 3213.610840,665.263611 
	C3226.071289,668.567932 3238.610352,670.536865 3251.555664,671.200195 
	C3270.174072,672.154297 3288.107422,669.690796 3305.283936,662.872620 
	C3317.418213,658.056030 3327.819336,650.785217 3332.041260,637.275452 
	C3334.714600,628.720093 3331.993896,614.264771 3322.942139,607.022949 
	C3311.969238,598.243713 3300.432129,590.762695 3287.716064,585.008484 
	C3279.990723,581.512512 3272.161377,578.233704 3264.297363,575.058960 
	C3247.544434,568.295715 3230.574219,562.042236 3214.005371,554.859558 
	C3200.512695,549.010315 3187.074463,542.810547 3174.329102,535.513611 
	C3156.051514,525.049133 3137.675293,514.410095 3123.237549,498.611847 
	C3115.836426,490.513336 3109.047607,481.850983 3102.070557,473.370728 
	C3090.296631,459.060608 3085.750000,441.711609 3082.173340,424.145416 
	C3080.358643,415.233856 3078.482422,405.875214 3079.345703,396.981873 
	C3080.760254,382.410126 3083.759766,367.896759 3087.314697,353.664520 
	C3089.418457,345.242737 3092.676025,336.584595 3097.548340,329.500244 
	C3105.101318,318.518616 3111.094482,306.210388 3122.354248,297.890839 
	C3128.722412,293.185425 3134.053711,287.080170 3139.889648,281.645905 
	C3140.458252,281.116364 3141.292236,280.872314 3142.297363,280.265625 
z"/>
<path fill="#FFFFFF" opacity="1.000000" stroke="none" 
	d="
M703.000000,132.000000 
	C703.000000,343.490875 703.000000,554.481750 702.999756,765.472595 
	C702.999756,774.271423 699.255432,777.999756 690.419800,777.999878 
	C657.587891,778.000305 624.754272,777.821533 591.925415,778.137817 
	C584.615173,778.208252 578.867981,772.351807 578.872925,765.100037 
	C579.028076,538.776550 578.999756,312.453033 579.000671,86.129509 
	C579.000671,77.040268 584.056152,72.001259 593.173828,72.000732 
	C625.505737,71.998863 657.837708,71.997620 690.169617,72.001656 
	C698.342957,72.002678 702.997192,76.723984 702.999023,85.002190 
	C703.002502,100.501457 703.000000,116.000732 703.000000,132.000000 
z"/>
<path fill="#FFFFFF" opacity="1.000000" stroke="none" 
	d="
M2300.669434,120.247849 
	C2310.280273,128.931213 2320.731201,134.751251 2333.792236,133.958801 
	C2340.852539,133.530426 2346.203857,130.275375 2351.195312,124.903183 
	C2360.088135,115.332710 2363.361572,103.530838 2367.018799,91.685356 
	C2370.327637,80.968887 2375.880127,78.161766 2386.661377,82.013863 
	C2394.944580,84.973473 2403.030518,88.480591 2411.240723,91.650703 
	C2419.445801,94.818901 2427.665771,97.955376 2435.937012,100.945244 
	C2441.823975,103.073151 2444.125000,105.820869 2443.962158,112.056030 
	C2443.667969,123.333321 2440.744873,133.937088 2435.557617,143.985397 
	C2431.225098,152.377350 2428.175049,161.600342 2422.857422,169.277969 
	C2412.910889,183.638443 2400.249756,195.259064 2384.374756,203.400314 
	C2370.256104,210.640991 2355.588867,214.119171 2339.818359,215.241638 
	C2326.092773,216.218536 2312.859619,215.123810 2299.947998,210.900513 
	C2292.856445,208.580917 2285.994141,205.365814 2279.342529,201.943970 
	C2270.132080,197.205948 2261.727539,191.345947 2253.694336,184.593735 
	C2244.274414,176.676086 2233.733154,169.893875 2223.019775,163.771423 
	C2212.830811,157.948807 2201.665283,157.727844 2191.809082,164.863785 
	C2184.535889,170.129364 2180.290527,178.122375 2177.062988,186.414139 
	C2174.458008,193.106476 2172.507812,200.052551 2169.937500,206.759750 
	C2167.687012,212.632492 2161.543701,215.289108 2155.366455,212.994446 
	C2141.892578,207.989365 2128.516357,202.722290 2115.096924,197.570602 
	C2111.958252,196.365631 2108.844238,195.080719 2105.654297,194.027863 
	C2096.338379,190.952850 2093.362793,186.108810 2094.996582,176.410172 
	C2097.197754,163.344604 2100.600586,150.450928 2107.231445,139.076614 
	C2113.862305,127.702095 2120.420654,116.331253 2130.723145,107.064484 
	C2140.063232,98.663246 2150.161621,92.612778 2161.187744,87.198837 
	C2179.110840,78.398476 2198.203125,77.012230 2217.441895,78.209335 
	C2237.477783,79.456047 2255.238281,87.966728 2271.617676,99.199791 
	C2281.375000,105.891212 2290.796387,113.071815 2300.669434,120.247849 
z"/>
<path fill="#000000" opacity="1.000000" stroke="none" 
	d="
M2362.278320,417.775085 
	C2373.327637,431.983582 2382.488037,446.923340 2387.328857,463.976135 
	C2390.268555,474.333191 2392.086914,485.038483 2393.904785,495.673523 
	C2395.076172,502.525421 2395.467529,509.523834 2395.972900,516.473694 
	C2397.145508,532.610657 2393.495117,548.211792 2389.526855,563.581787 
	C2386.823486,574.051880 2383.130371,584.534607 2378.081543,594.058228 
	C2372.671143,604.264893 2365.585205,613.690369 2358.455566,622.854004 
	C2347.242432,637.266357 2332.520020,647.541260 2316.144287,655.264465 
	C2304.645752,660.687378 2292.560303,664.622314 2279.788818,666.011780 
	C2271.054688,666.962036 2262.269043,669.195374 2253.614014,668.752930 
	C2235.209961,667.812195 2217.275146,663.906982 2199.995117,657.076782 
	C2185.135986,651.203491 2172.263672,642.122803 2160.634766,631.696106 
	C2150.033203,622.190918 2141.265137,610.820618 2133.826416,598.350708 
	C2125.906494,585.074036 2120.436035,571.060913 2117.070801,556.159058 
	C2115.256836,548.126343 2113.735840,539.935730 2113.155273,531.740417 
	C2112.486084,522.294495 2112.400879,512.718079 2113.135010,503.281830 
	C2114.351562,487.644958 2117.780762,472.410645 2123.641602,457.762299 
	C2132.690918,435.143890 2146.834229,416.005798 2165.293213,400.541138 
	C2182.031006,386.518585 2201.110107,375.903015 2223.025635,372.141327 
	C2235.371338,370.022308 2247.980957,368.084930 2260.438477,368.273438 
	C2282.786133,368.611664 2304.468018,373.756683 2323.821533,385.200134 
	C2338.226807,393.717773 2351.714600,403.884888 2362.278320,417.775085 
z"/>
<path fill="#000000" opacity="1.000000" stroke="none" 
	d="
M313.563538,663.774048 
	C304.963623,665.576233 296.794952,668.029419 288.503448,668.558716 
	C279.590332,669.127625 270.544220,670.433411 261.539398,667.413940 
	C255.777695,665.482056 249.473419,665.182922 243.422272,664.096741 
	C229.049820,661.516968 215.115250,656.684875 203.310059,648.612244 
	C191.531891,640.558167 178.550781,633.223633 170.662689,620.328857 
	C168.974991,617.569946 166.527939,615.255371 164.316833,612.840393 
	C154.900909,602.556213 149.229782,590.084778 144.217926,577.377014 
	C140.657272,568.348816 137.877213,558.970093 135.387741,549.578430 
	C133.940140,544.117188 133.297821,538.337585 133.099991,532.673035 
	C132.745529,522.523682 131.985214,512.224060 133.256287,502.223816 
	C134.854996,489.645996 136.881943,476.755798 141.364166,465.007660 
	C146.526901,451.475861 153.254990,438.098846 161.678848,426.359222 
	C173.789017,409.482361 189.373703,395.738800 207.842163,385.537750 
	C222.981705,377.175385 239.010681,371.874420 256.163879,370.036255 
	C264.472809,369.145874 272.866791,367.803406 281.149414,368.197235 
	C294.400116,368.827271 307.646637,370.592743 320.253479,375.103302 
	C327.476807,377.687714 334.883942,380.221771 341.457733,384.063049 
	C355.734833,392.405640 369.140259,401.758423 379.884735,414.939667 
	C387.355652,424.104980 394.405273,433.353607 399.372528,443.975647 
	C407.362915,461.062256 414.306580,478.563416 414.986267,497.803894 
	C415.401245,509.550751 416.720581,521.393738 415.717255,533.028320 
	C414.612183,545.842590 412.691956,558.934692 408.593475,571.048645 
	C404.163544,584.142334 397.995636,597.025085 390.422729,608.582520 
	C381.000336,622.962708 368.894775,635.243896 354.364075,645.149170 
	C341.829468,653.693787 328.204498,659.172791 313.563538,663.774048 
z"/>
<path fill="#000000" opacity="1.000000" stroke="none" 
	d="
M924.925171,374.980560 
	C933.842163,372.640533 942.312927,370.167114 950.872864,368.055084 
	C956.154663,366.751892 961.534241,365.505554 966.935913,365.089172 
	C985.939148,363.624298 1004.104736,367.747467 1021.755249,374.379303 
	C1032.260986,378.326630 1041.452026,384.417023 1050.219849,391.508667 
	C1063.969116,402.629333 1074.141846,416.318604 1081.486206,432.142212 
	C1085.706665,441.235352 1089.056396,450.741669 1092.565308,460.148712 
	C1093.277832,462.058716 1092.947632,464.357635 1093.117188,466.747070 
	C1009.378235,466.747070 925.943909,466.747070 842.512024,466.747070 
	C845.918335,439.613342 877.760498,391.398407 924.925171,374.980560 
z"/>
<path fill="#000000" opacity="1.000000" stroke="none" 
	d="
M2950.000000,554.978638 
	C2946.963623,568.283264 2942.803467,580.950134 2935.748047,592.013855 
	C2928.500244,603.379822 2921.839844,615.442322 2910.690674,623.978088 
	C2905.310303,628.097046 2900.987305,633.593384 2895.623047,637.737732 
	C2879.114258,650.492188 2860.812744,659.780090 2840.243652,663.932312 
	C2827.019775,666.601868 2813.805176,670.331238 2800.137939,668.915405 
	C2784.253174,667.270020 2768.416748,664.980347 2753.435791,659.023804 
	C2745.580078,655.900330 2737.675293,652.765625 2730.206787,648.846985 
	C2724.682373,645.948486 2719.897217,641.668762 2714.657227,638.194153 
	C2705.463867,632.098145 2698.593018,623.671082 2690.993896,615.871582 
	C2682.389160,607.040100 2677.080078,596.408203 2670.957520,586.104858 
	C2662.035889,571.090698 2658.238525,554.644531 2655.908203,537.570190 
	C2652.795410,514.759766 2655.289551,492.612732 2662.001221,470.741364 
	C2666.479248,456.148224 2674.127441,443.182556 2682.837402,430.919525 
	C2687.943115,423.730804 2694.601807,417.652618 2700.483154,411.005096 
	C2711.264648,398.818420 2724.889893,390.373810 2739.107666,383.180603 
	C2753.189941,376.055847 2768.317871,371.432373 2784.217529,370.001312 
	C2791.879395,369.311737 2799.583984,367.816376 2807.202148,368.162903 
	C2828.138672,369.115265 2848.493652,372.746124 2867.772705,381.848938 
	C2887.952881,391.377045 2905.421631,404.462677 2919.554688,421.379883 
	C2935.406982,440.354431 2945.810791,462.156128 2951.416260,486.669312 
	C2954.855225,501.709961 2955.272461,516.545593 2954.754395,531.533142 
	C2954.487549,539.251221 2951.668457,546.881104 2950.000000,554.978638 
z"/>
</svg>